<svg width="23" height="24" viewBox="0 0 23 24" fill="none" xmlns="http://www.w3.org/2000/svg">
<path fill-rule="evenodd" clip-rule="evenodd" d="M16.2949 4.18605C16.2949 4.64372 16.6785 5.02326 17.141 5.02326C17.6036 5.02326 17.9872 4.64372 17.9872 4.18605V3.58995C18.7555 3.744 19.3185 3.99628 19.7359 4.4093C20.3361 5.00316 20.6001 5.89172 20.7174 7.25581H2.28256C2.3999 5.89172 2.6639 5.00316 3.2641 4.4093C3.68154 3.99628 4.24451 3.744 5.01282 3.58995V4.18605C5.01282 4.64372 5.39641 5.02326 5.85897 5.02326C6.32154 5.02326 6.70513 4.64372 6.70513 4.18605V3.40242C7.69344 3.34995 8.89836 3.34995 10.3718 3.34995H12.6282C14.1016 3.34995 15.3066 3.34995 16.2949 3.40242V4.18605ZM2.20697 8.93023H20.793C20.8077 9.66586 20.8077 10.4975 20.8077 11.4419V14.2326C20.8077 18.2065 20.8077 20.2047 19.7359 21.2651C18.6641 22.3256 16.6446 22.3256 12.6282 22.3256H10.3718C6.35538 22.3256 4.3359 22.3256 3.2641 21.2651C2.19231 20.2047 2.19231 18.2065 2.19231 14.2326V11.4419C2.19231 10.4975 2.19231 9.66586 2.20697 8.93023ZM17.9872 1.88651V0.837209C17.9872 0.379535 17.6036 0 17.141 0C16.6785 0 16.2949 0.379535 16.2949 0.837209V1.72577C15.2682 1.67442 14.0622 1.67442 12.6282 1.67442H10.3718C8.93785 1.67442 7.7318 1.67442 6.70513 1.72577V0.837209C6.70513 0.379535 6.32154 0 5.85897 0C5.39641 0 5.01282 0.379535 5.01282 0.837209V1.88651C3.75149 2.08521 2.82974 2.47256 2.06821 3.22605C0.5 4.77767 0.5 6.99907 0.5 11.4419V14.2326C0.5 18.6754 0.5 20.8967 2.06821 22.4484C3.63641 24 5.88154 24 10.3718 24H12.6282C17.1185 24 19.3636 24 20.9318 22.4484C22.5 20.8967 22.5 18.6754 22.5 14.2326V11.4419C22.5 6.99907 22.5 4.77767 20.9318 3.22605C20.1703 2.47256 19.2485 2.08521 17.9872 1.88651ZM10.2928 18.9767H10.3718C10.6764 18.9767 10.9697 18.8093 11.1164 18.5414L11.1277 18.5224C11.3082 18.2099 13.5646 14.3085 16.2949 13.3507C16.7349 13.1944 16.9718 12.7144 16.8138 12.2791C16.7387 12.0691 16.5825 11.8972 16.3795 11.8009C16.1765 11.7047 15.9432 11.692 15.7308 11.7656C13.3615 12.6028 11.4097 15.014 10.3944 16.5098C9.53692 15.5051 8.44256 15.1367 8.37487 15.1144C8.27044 15.0795 8.16006 15.0654 8.05009 15.0729C7.94011 15.0804 7.83273 15.1093 7.73414 15.1581C7.63554 15.2069 7.54768 15.2745 7.47564 15.3571C7.40359 15.4396 7.34877 15.5355 7.31436 15.6391C7.15641 16.0744 7.39333 16.5433 7.83333 16.6995L7.85477 16.7096C8.02739 16.781 9.17139 17.2577 9.55836 18.4074C9.67118 18.72 9.95323 18.9433 10.2917 18.9767" fill="white"/>
</svg>
