<svg aria-hidden="true" width="24" height="24" viewBox="0 0 24 24" fill="none" xmlns="http://www.w3.org/2000/svg">
<path d="M13.5752 11.9998L18.7494 6.82552C18.8394 6.73596 18.89 6.61424 18.89 6.48729C18.89 6.36035 18.8394 6.23863 18.7494 6.14907L17.8509 5.25052C17.7613 5.16056 17.6396 5.10999 17.5127 5.10999C17.3857 5.10999 17.264 5.16056 17.1744 5.25052L12.0002 10.4248L6.82589 5.25052C6.73632 5.16056 6.61461 5.10999 6.48766 5.10999C6.36071 5.10999 6.239 5.16056 6.14943 5.25052L5.25089 6.14907C5.16093 6.23863 5.11035 6.36035 5.11035 6.48729C5.11035 6.61424 5.16093 6.73596 5.25089 6.82552L10.4252 11.9998L5.25089 17.1741C5.16093 17.2636 5.11035 17.3853 5.11035 17.5123C5.11035 17.6392 5.16093 17.761 5.25089 17.8505L6.14943 18.7491C6.239 18.839 6.36071 18.8896 6.48766 18.8896C6.61461 18.8896 6.73632 18.839 6.82589 18.7491L12.0002 13.5748L17.1744 18.7491C17.264 18.839 17.3857 18.8896 17.5127 18.8896C17.6396 18.8896 17.7613 18.839 17.8509 18.7491L18.7494 17.8505C18.8394 17.761 18.89 17.6392 18.89 17.5123C18.89 17.3853 18.8394 17.2636 18.7494 17.1741L13.5752 11.9998Z" fill="#484D53"/>
</svg>
