<svg aria-hidden="true" width="24" height="25" viewBox="0 0 24 25" fill="none" xmlns="http://www.w3.org/2000/svg">
<path d="M12 15.1074C13.6569 15.1074 15 13.7643 15 12.1074C15 10.4506 13.6569 9.10742 12 9.10742C10.3431 9.10742 9 10.4506 9 12.1074C9 13.7643 10.3431 15.1074 12 15.1074Z" fill="#F9F9F9"/>
<path fill-rule="evenodd" clip-rule="evenodd" d="M6 2.10742C3.79086 2.10742 2 3.89828 2 6.10742V18.1074C2 20.3166 3.79086 22.1074 6 22.1074H18C20.2091 22.1074 22 20.3166 22 18.1074V6.10742C22 3.89828 20.2091 2.10742 18 2.10742H6ZM12 17.1074C14.7614 17.1074 17 14.8688 17 12.1074C17 9.346 14.7614 7.10742 12 7.10742C9.23858 7.10742 7 9.346 7 12.1074C7 14.8688 9.23858 17.1074 12 17.1074ZM18 6.10742C18 6.65971 17.5523 7.10742 17 7.10742C16.4477 7.10742 16 6.65971 16 6.10742C16 5.55514 16.4477 5.10742 17 5.10742C17.5523 5.10742 18 5.55514 18 6.10742Z" fill="#F9F9F9"/>
</svg>
