<svg aria-hidden="true" width="26" height="26" viewBox="0 0 26 26" fill="none" xmlns="http://www.w3.org/2000/svg">
<path d="M12.999 18.3859C14.4135 18.3859 15.77 17.824 16.7702 16.8238C17.7704 15.8236 18.3323 14.4671 18.3323 13.0526C18.3323 11.6381 17.7704 10.2815 16.7702 9.28134C15.77 8.28114 14.4135 7.71924 12.999 7.71924C11.5845 7.71924 10.2279 8.28114 9.22775 9.28134C8.22755 10.2815 7.66565 11.6381 7.66565 13.0526C7.66565 14.4671 8.22755 15.8236 9.22775 16.8238C10.2279 17.824 11.5845 18.3859 12.999 18.3859Z" stroke="#CC0773" stroke-width="1.5" stroke-linecap="round" stroke-linejoin="round"/>
<path d="M1 18.387V7.72038C1 5.95227 1.70238 4.25658 2.95262 3.00633C4.20286 1.75609 5.89856 1.05371 7.66667 1.05371H18.3333C20.1014 1.05371 21.7971 1.75609 23.0474 3.00633C24.2976 4.25658 25 5.95227 25 7.72038V18.387C25 20.1552 24.2976 21.8508 23.0474 23.1011C21.7971 24.3513 20.1014 25.0537 18.3333 25.0537H7.66667C5.89856 25.0537 4.20286 24.3513 2.95262 23.1011C1.70238 21.8508 1 20.1552 1 18.387Z" stroke="#CC0773" stroke-width="1.5"/>
<path d="M20.3336 5.73244L20.347 5.71777" stroke="#CC0773" stroke-width="1.5" stroke-linecap="round" stroke-linejoin="round"/>
</svg>
