<svg aria-hidden="true" width="32" height="35" viewBox="0 0 32 35" fill="none" xmlns="http://www.w3.org/2000/svg">
<path d="M6.822 9L6.813 4.41L4.536 8.235H4.122L1.845 4.437V9H0.981V2.7H1.719L4.347 7.128L6.939 2.7H7.677L7.686 9H6.822ZM14.219 8.217V9H9.64702V2.7H14.093V3.483H10.547V5.418H13.706V6.183H10.547V8.217H14.219ZM21.0504 2.7V9H20.1504V6.192H16.5324V9H15.6324V2.7H16.5324V5.409H20.1504V2.7H21.0504ZM28.2352 2.628C28.8412 2.628 29.3872 2.769 29.8732 3.051C30.3592 3.327 30.7402 3.711 31.0162 4.203C31.2982 4.689 31.4392 5.238 31.4392 5.85C31.4392 6.462 31.2982 7.014 31.0162 7.506C30.7402 7.992 30.3592 8.376 29.8732 8.658C29.3872 8.934 28.8412 9.072 28.2352 9.072C27.6712 9.072 27.1582 8.949 26.6962 8.703C26.2342 8.457 25.8592 8.118 25.5712 7.686C25.2832 7.254 25.1122 6.762 25.0582 6.21H23.9062V9H23.0152V2.7H23.9062V5.4H25.0672C25.1332 4.866 25.3102 4.389 25.5982 3.969C25.8922 3.549 26.2672 3.222 26.7232 2.988C27.1792 2.748 27.6832 2.628 28.2352 2.628ZM28.2352 8.262C28.6672 8.262 29.0572 8.16 29.4052 7.956C29.7592 7.746 30.0352 7.458 30.2332 7.092C30.4372 6.726 30.5392 6.312 30.5392 5.85C30.5392 5.388 30.4372 4.974 30.2332 4.608C30.0352 4.242 29.7592 3.957 29.4052 3.753C29.0572 3.543 28.6672 3.438 28.2352 3.438C27.8092 3.438 27.4222 3.543 27.0742 3.753C26.7262 3.957 26.4502 4.242 26.2462 4.608C26.0482 4.974 25.9492 5.388 25.9492 5.85C25.9492 6.312 26.0482 6.726 26.2462 7.092C26.4502 7.458 26.7262 7.746 27.0742 7.956C27.4222 8.16 27.8092 8.262 28.2352 8.262Z" fill="#262628"/>
<path d="M2 26.5H30M2 19H30M2 34H30" stroke="#262628" stroke-width="2" stroke-linecap="round" stroke-linejoin="round"/>
</svg>
