<svg width="24" height="24" viewBox="0 0 24 24" fill="none" xmlns="http://www.w3.org/2000/svg">
<path d="M3 16.42V19.956C2.99988 20.2092 3.0958 20.453 3.26841 20.6382C3.44101 20.8234 3.67744 20.9363 3.93 20.954C4.36666 20.9847 4.72333 21 5 21C13.837 21 21 13.837 21 5C21 4.724 20.9847 4.36733 20.954 3.93C20.9363 3.67744 20.8234 3.44101 20.6382 3.26841C20.453 3.09581 20.2092 2.99989 19.956 3H16.42C16.296 2.99987 16.1763 3.04586 16.0843 3.12902C15.9922 3.21218 15.9344 3.32658 15.922 3.45C15.8993 3.67933 15.878 3.86333 15.858 4.002C15.6593 5.38893 15.252 6.73784 14.65 8.003C14.555 8.203 14.617 8.442 14.797 8.57L16.955 10.112C15.6353 13.1863 13.1853 15.6363 10.111 16.956L8.571 14.802C8.50831 14.7137 8.41647 14.6503 8.31166 14.6231C8.20684 14.5958 8.09577 14.6064 7.998 14.653C6.73298 15.2539 5.38442 15.6601 3.998 15.858C3.85933 15.878 3.676 15.8993 3.448 15.922C3.32476 15.9346 3.2106 15.9926 3.12765 16.0846C3.04469 16.1766 2.99985 16.2961 3 16.42Z" fill="white"/>
</svg>
