<svg width="18" height="19" viewBox="0 0 18 19" fill="none" xmlns="http://www.w3.org/2000/svg">
<path d="M16.2292 12.312L13.6892 12.022C13.3906 11.9869 13.0879 12.02 12.8038 12.1187C12.5198 12.2175 12.2618 12.3793 12.0492 12.592L10.2092 14.432C7.37064 12.988 5.06331 10.6806 3.61925 7.84201L5.46925 5.99201C5.89925 5.56201 6.10925 4.96201 6.03925 4.35201L5.74925 1.83201C5.69276 1.3441 5.45871 0.894037 5.09171 0.567607C4.72471 0.241178 4.25042 0.0612116 3.75925 0.0620144H2.02925C0.899248 0.0620144 -0.0407528 1.00201 0.0292472 2.13201C0.559247 10.672 7.38925 17.492 15.9192 18.022C17.0492 18.092 17.9892 17.152 17.9892 16.022V14.292C17.9992 13.282 17.2392 12.432 16.2292 12.312Z" fill="#CC0773"/>
</svg>
