<svg aria-hidden="true" width="26" height="26" viewBox="0 0 26 26" fill="none" xmlns="http://www.w3.org/2000/svg">
<path d="M1 13.0537C1 7.39729 1 4.56782 2.75705 2.81076C4.51411 1.05371 7.34232 1.05371 13 1.05371C18.6564 1.05371 21.4859 1.05371 23.2429 2.81076C25 4.56782 25 7.39603 25 13.0537C25 18.7101 25 21.5396 23.2429 23.2967C21.4859 25.0537 18.6577 25.0537 13 25.0537C7.34358 25.0537 4.51411 25.0537 2.75705 23.2967C1 21.5396 1 18.7114 1 13.0537Z" stroke="#CC0773" stroke-width="1.5" stroke-linecap="round" stroke-linejoin="round"/>
<path d="M11.1507 11.8006C10.115 11.6541 7.75285 11.8953 6.5958 14.0364C5.43874 16.1774 6.60464 18.4056 7.33348 19.2519C8.05222 20.0439 10.3373 21.5433 12.7613 20.0793C13.3625 19.7168 14.1116 19.4452 14.9604 16.6094L14.8619 5.45068C14.6977 6.67974 16.0556 9.56226 19.9196 9.90331" stroke="#CC0773" stroke-width="1.5" stroke-linecap="round" stroke-linejoin="round"/>
</svg>
