<svg aria-hidden="true" width="24" height="25" viewBox="0 0 24 25" fill="none" xmlns="http://www.w3.org/2000/svg">
<path fill-rule="evenodd" clip-rule="evenodd" d="M16 21.8574C17.525 21.8574 18.9875 21.2516 20.0659 20.1733C21.1442 19.095 21.75 17.6324 21.75 16.1074V8.10742C21.75 6.58243 21.1442 5.11989 20.0659 4.04156C18.9875 2.96322 17.525 2.35742 16 2.35742H8C6.47501 2.35742 5.01247 2.96322 3.93414 4.04156C2.8558 5.11989 2.25 6.58243 2.25 8.10742V16.1074C2.25 17.6324 2.8558 19.095 3.93414 20.1733C5.01247 21.2516 6.47501 21.8574 8 21.8574H16ZM13.711 5.87042C13.6544 5.70186 13.5398 5.55889 13.3876 5.46701C13.2353 5.37513 13.0554 5.34033 12.8799 5.3688C12.7044 5.39727 12.5447 5.48717 12.4293 5.62245C12.314 5.75774 12.2504 5.92962 12.25 6.10742V15.1074C12.25 15.5524 12.118 15.9874 11.8708 16.3575C11.6236 16.7275 11.2722 17.0159 10.861 17.1862C10.4499 17.3564 9.9975 17.401 9.56105 17.3142C9.12459 17.2274 8.72368 17.0131 8.40901 16.6984C8.09434 16.3837 7.88005 15.9828 7.79323 15.5464C7.70642 15.1099 7.75097 14.6575 7.92127 14.2464C8.09157 13.8353 8.37996 13.4838 8.74997 13.2366C9.11998 12.9894 9.55499 12.8574 10 12.8574C10.1989 12.8574 10.3897 12.7784 10.5303 12.6378C10.671 12.4971 10.75 12.3063 10.75 12.1074C10.75 11.9085 10.671 11.7177 10.5303 11.5771C10.3897 11.4364 10.1989 11.3574 10 11.3574C9.25832 11.3574 8.5333 11.5774 7.91661 11.9894C7.29993 12.4015 6.81928 12.9871 6.53545 13.6724C6.25162 14.3576 6.17736 15.1116 6.32206 15.839C6.46675 16.5664 6.8239 17.2346 7.34835 17.7591C7.8728 18.2835 8.54098 18.6407 9.26841 18.7854C9.99584 18.9301 10.7498 18.8558 11.4351 18.572C12.1203 18.2881 12.706 17.8075 13.118 17.1908C13.5301 16.5741 13.75 15.8491 13.75 15.1074V8.56542C14.517 9.27742 15.597 9.85742 17 9.85742C17.1989 9.85742 17.3897 9.7784 17.5303 9.63775C17.671 9.4971 17.75 9.30633 17.75 9.10742C17.75 8.90851 17.671 8.71774 17.5303 8.57709C17.3897 8.43644 17.1989 8.35742 17 8.35742C16.028 8.35742 15.289 7.95742 14.741 7.43842C14.181 6.90642 13.843 6.26542 13.711 5.87042Z" fill="#F9F9F9"/>
</svg>
