<svg width="24" height="24" viewBox="0 0 24 24" fill="none" xmlns="http://www.w3.org/2000/svg">
<g clip-path="url(#clip0_1_1192)">
<path d="M19.707 23.5909C14.5852 24.1373 9.41977 24.1373 4.29794 23.5909C3.30333 23.4859 2.37477 23.0431 1.66706 22.3364C0.959361 21.6297 0.515278 20.7017 0.408849 19.7073C-0.137585 14.5854 -0.137585 9.42002 0.408849 4.29818C0.513882 3.30357 0.956662 2.37501 1.66337 1.66731C2.37008 0.959605 3.29802 0.515522 4.29249 0.409094C9.41432 -0.137341 14.5797 -0.137341 19.7016 0.409094C20.6962 0.514126 21.6247 0.956907 22.3325 1.66362C23.0402 2.37033 23.4842 3.29827 23.5907 4.29273C24.1371 9.41456 24.1371 14.58 23.5907 19.7018C23.4856 20.6964 23.0429 21.625 22.3361 22.3327C21.6294 23.0404 20.7015 23.4845 19.707 23.5909Z" fill="#6F3FAA"/>
<path d="M18.9313 8.37958V8.36185C18.7704 7.71003 18.3504 7.0364 17.7994 6.46912C17.1558 5.80367 16.3363 5.2814 15.5535 5.11231H15.5372C13.203 4.66504 10.805 4.66504 8.47081 5.11231H8.45445C7.00081 5.42731 5.42308 6.9464 5.07127 8.36185V8.37958C4.63901 10.342 4.63901 12.3749 5.07127 14.3373V14.3537C5.32217 15.3628 6.1949 16.4237 7.20127 17.0646C7.52992 17.2788 7.88768 17.4445 8.26354 17.5569V19.1359C8.26407 19.2621 8.30216 19.3853 8.37296 19.4898C8.44376 19.5942 8.54406 19.6753 8.66108 19.7225C8.7781 19.7698 8.90654 19.7811 9.03002 19.7551C9.15351 19.729 9.26645 19.6668 9.35445 19.5764L10.9554 17.9128C11.3017 17.9319 11.6508 17.9428 11.9972 17.9428C13.1828 17.9424 14.3658 17.8301 15.5304 17.6073H15.5467C16.9963 17.2909 18.5754 15.7719 18.9244 14.3564V14.34C19.3594 12.3773 19.3617 10.3433 18.9313 8.37958ZM17.6644 14.0455C17.4299 14.9687 16.2326 16.1182 15.2794 16.3296C14.0414 16.5667 12.7814 16.6696 11.5213 16.6364C11.509 16.6356 11.4967 16.6377 11.4854 16.6424C11.474 16.6472 11.4639 16.6544 11.4558 16.6637L10.2872 17.8637L9.04354 19.1387C9.02364 19.1597 8.9979 19.1743 8.96963 19.1805C8.94136 19.1867 8.91187 19.1843 8.88498 19.1736C8.85809 19.1629 8.83505 19.1443 8.81883 19.1203C8.8026 19.0964 8.79395 19.0681 8.79399 19.0391V16.4209C8.79402 16.3999 8.78667 16.3795 8.77322 16.3633C8.75977 16.3471 8.74106 16.3361 8.72036 16.3323C8.52154 16.2851 8.32987 16.2117 8.15036 16.1141C7.34036 15.6819 6.52354 14.7955 6.33536 14.0455C5.94557 12.2716 5.94557 10.4343 6.33536 8.66049C6.56854 7.7414 7.77263 6.59458 8.71899 6.38185C10.8862 5.96719 13.1123 5.96719 15.2794 6.38185C15.8044 6.49912 16.4044 6.89867 16.8735 7.38958C17.2594 7.78912 17.5554 8.25003 17.6644 8.66458C18.0536 10.4371 18.0536 12.273 17.6644 14.0455Z" fill="white"/>
<path d="M15.3137 14.1818C15.1366 14.5861 14.832 14.9214 14.4464 15.1364C14.3255 15.1877 14.1999 15.2274 14.0714 15.255C13.9255 15.2114 13.7864 15.1814 13.6624 15.1282C12.6287 14.7259 11.6664 14.1601 10.8124 13.4523C10.5587 13.2359 10.3204 13.0022 10.0992 12.7527C9.55295 12.1237 9.09425 11.4237 8.73553 10.6718C8.56099 10.3159 8.41372 9.94772 8.26372 9.5809C8.12735 9.24681 8.32917 8.89908 8.53644 8.64953C8.73933 8.4181 8.98889 8.23221 9.26872 8.10408C9.36718 8.05459 9.47987 8.04113 9.58722 8.06604C9.69458 8.09095 9.78982 8.15265 9.85644 8.24044C10.2048 8.63188 10.5119 9.05823 10.7728 9.51272C10.855 9.64487 10.8831 9.80359 10.8514 9.95593C10.8196 10.1083 10.7305 10.2426 10.6024 10.3309C10.5342 10.3786 10.466 10.4332 10.4074 10.4864C10.3495 10.5292 10.2997 10.5818 10.2601 10.6418C10.2259 10.698 10.2051 10.7613 10.1995 10.8268C10.1938 10.8924 10.2033 10.9583 10.2274 11.0195C10.4905 11.7436 10.8901 12.3477 11.4874 12.7718C11.6895 12.9147 11.9073 13.0341 12.1364 13.1277C12.2861 13.2091 12.4543 13.2504 12.6246 13.2477C12.9219 13.2123 13.0201 12.8836 13.2274 12.7145C13.3225 12.6366 13.4402 12.5915 13.5631 12.5859C13.6859 12.5802 13.8073 12.6143 13.9092 12.6832C14.1301 12.8195 14.3428 12.9736 14.5555 13.1236C14.7659 13.2672 14.9685 13.422 15.1624 13.5873C15.253 13.6531 15.3178 13.7486 15.3454 13.8572C15.3731 13.9658 15.3618 14.0806 15.3137 14.1818Z" fill="white"/>
<path d="M12.3913 7.64733H12.2168C12.2727 7.6446 12.3313 7.64733 12.3913 7.64733Z" fill="white"/>
<path d="M15.409 11.7342C15.2727 11.7342 15.2059 11.6182 15.1963 11.4914C15.1786 11.2419 15.1649 10.991 15.1309 10.7428C15.0719 10.3241 14.9261 9.92227 14.7027 9.56324C14.4731 9.18922 14.1675 8.86755 13.8058 8.61903C13.444 8.37051 13.0342 8.20068 12.6027 8.12051C12.4063 8.08506 12.2059 8.07688 12.0081 8.05642C11.8827 8.04279 11.7177 8.0346 11.6904 7.87915C11.6863 7.84896 11.6887 7.81824 11.6975 7.78906C11.7062 7.75988 11.7211 7.73289 11.7411 7.70992C11.7611 7.68694 11.7858 7.6685 11.8135 7.65583C11.8412 7.64315 11.8713 7.63654 11.9018 7.63642C11.9345 7.63454 11.9672 7.63454 11.9999 7.63642C12.596 7.64147 13.1816 7.79344 13.7049 8.07887C14.2282 8.3643 14.673 8.77438 14.9999 9.27279C15.258 9.67452 15.4333 10.1238 15.5154 10.5942C15.5672 10.8887 15.5863 11.1914 15.6095 11.4914C15.6141 11.5208 15.6125 11.5509 15.6047 11.5796C15.5968 11.6083 15.583 11.635 15.564 11.658C15.545 11.6809 15.5214 11.6996 15.4947 11.7127C15.468 11.7259 15.4388 11.7332 15.409 11.7342Z" fill="white"/>
<path d="M14.6714 11.0972C14.6706 11.1378 14.6651 11.178 14.655 11.2173C14.6431 11.2567 14.6193 11.2915 14.587 11.3169C14.5546 11.3424 14.5151 11.3572 14.474 11.3594C14.4329 11.3617 14.3921 11.3512 14.3571 11.3294C14.3222 11.3076 14.2948 11.2756 14.2787 11.2377C14.2636 11.1826 14.2568 11.1257 14.2582 11.0686C14.2614 10.7636 14.201 10.4613 14.0809 10.1809C14.0537 10.1209 14.0237 10.0595 13.9896 10.0009C13.7944 9.66444 13.5047 9.39274 13.1564 9.21952C12.9463 9.12032 12.7231 9.05145 12.4937 9.01498C12.3928 8.99861 12.2918 8.98907 12.1909 8.97543C12.1647 8.97411 12.139 8.96742 12.1154 8.95577C12.0918 8.94411 12.0709 8.92775 12.0539 8.90768C12.0369 8.88762 12.0242 8.86428 12.0165 8.8391C12.0089 8.81393 12.0066 8.78747 12.0096 8.76134C12.0096 8.73462 12.0153 8.7082 12.0262 8.68382C12.0371 8.65944 12.0531 8.63765 12.0731 8.61988C12.093 8.60211 12.1165 8.58876 12.142 8.58071C12.1675 8.57266 12.1944 8.57008 12.2209 8.57316C12.6213 8.58861 13.0136 8.69098 13.3705 8.87316C13.8063 9.09247 14.1618 9.44368 14.3864 9.8768C14.5129 10.1297 14.5976 10.4014 14.6373 10.6813C14.6447 10.7179 14.6501 10.7547 14.6537 10.7918C14.6605 10.8736 14.6632 10.9554 14.67 11.0563C14.67 11.0659 14.6714 11.0782 14.6714 11.0972Z" fill="white"/>
<path d="M13.7371 10.9091C13.7293 10.9437 13.7115 10.9752 13.6857 10.9995C13.6599 11.0238 13.6275 11.0398 13.5925 11.0455H13.5625C13.5178 11.0484 13.4734 11.0366 13.436 11.012C13.3986 10.9874 13.3703 10.9513 13.3552 10.9091C13.3468 10.8868 13.3413 10.8634 13.3389 10.8396C13.3317 10.7478 13.318 10.6567 13.298 10.5668C13.2574 10.385 13.1541 10.2233 13.0061 10.11C12.9346 10.0587 12.8548 10.0199 12.7702 9.99548C12.6625 9.96412 12.5493 9.9723 12.443 9.94639C12.3904 9.93707 12.3437 9.9073 12.313 9.8636C12.2823 9.81989 12.2702 9.76582 12.2793 9.71321C12.2895 9.66282 12.3176 9.61785 12.3586 9.58672C12.3995 9.5556 12.4503 9.54045 12.5016 9.54412C13.1261 9.58912 13.5925 9.88912 13.7125 10.5587C13.7249 10.6208 13.7335 10.6837 13.7384 10.7468C13.7461 10.8007 13.7456 10.8554 13.7371 10.9091Z" fill="white"/>
</g>
<defs>
<clipPath id="clip0_1_1192">
<rect width="24" height="24" fill="white"/>
</clipPath>
</defs>
</svg>
