<svg width="24" height="24" viewBox="0 0 24 24" fill="none" xmlns="http://www.w3.org/2000/svg">
<g clip-path="url(#clip0_1_1183)">
<path d="M20.7273 0H3.27273C1.46525 0 0 1.46525 0 3.27273V20.7273C0 22.5347 1.46525 24 3.27273 24H20.7273C22.5347 24 24 22.5347 24 20.7273V3.27273C24 1.46525 22.5347 0 20.7273 0Z" fill="#29A71A"/>
<path d="M17.2908 6.70914C16.0423 5.44818 14.3843 4.67488 12.6158 4.52872C10.8474 4.38255 9.08493 4.87315 7.64635 5.91202C6.20777 6.95088 5.18778 8.46963 4.77035 10.1943C4.35293 11.919 4.56556 13.7361 5.36988 15.3178L4.58034 19.151C4.57215 19.1891 4.57191 19.2285 4.57966 19.2668C4.5874 19.305 4.60295 19.3413 4.62534 19.3732C4.65813 19.4217 4.70495 19.4591 4.75953 19.4803C4.81411 19.5015 4.87385 19.5055 4.93079 19.4919L8.68761 18.6014C10.2649 19.3854 12.0691 19.5843 13.7793 19.1629C15.4895 18.7414 16.9947 17.7269 18.0271 16.2998C19.0595 14.8727 19.5521 13.1257 19.4173 11.3695C19.2824 9.6133 18.5289 7.96191 17.2908 6.70914ZM16.1194 16.0582C15.2556 16.9196 14.1432 17.4883 12.9391 17.684C11.735 17.8797 10.4998 17.6926 9.40761 17.1491L8.88397 16.89L6.58079 17.4355L6.58761 17.4069L7.06488 15.0887L6.80852 14.5828C6.25047 13.4868 6.0536 12.2423 6.24614 11.0276C6.43867 9.81284 7.01072 8.69021 7.88034 7.8205C8.97303 6.72815 10.4548 6.11451 11.9999 6.11451C13.5449 6.11451 15.0267 6.72815 16.1194 7.8205C16.1287 7.83118 16.1388 7.8412 16.1494 7.8505C17.2286 8.94567 17.831 10.423 17.8254 11.9605C17.8198 13.498 17.2065 14.971 16.1194 16.0582Z" fill="white"/>
<path d="M15.9147 14.3578C15.6324 14.8024 15.1865 15.3465 14.626 15.4815C13.6442 15.7187 12.1374 15.4896 10.2624 13.7415L10.2392 13.721C8.59057 12.1924 8.16239 10.9201 8.26603 9.91101C8.3233 9.33828 8.80057 8.8201 9.20285 8.48192C9.26644 8.42764 9.34186 8.38899 9.42307 8.36907C9.50427 8.34915 9.58901 8.34851 9.67051 8.36719C9.75201 8.38588 9.828 8.42337 9.89242 8.47668C9.95683 8.52999 10.0079 8.59763 10.0415 8.67419L10.6483 10.0378C10.6877 10.1262 10.7023 10.2237 10.6906 10.3198C10.6788 10.4159 10.6411 10.507 10.5815 10.5833L10.2747 10.9815C10.2088 11.0637 10.1691 11.1637 10.1606 11.2687C10.1521 11.3737 10.1752 11.4788 10.2269 11.5706C10.3988 11.8719 10.8106 12.3151 11.2674 12.7256C11.7801 13.1892 12.3488 13.6133 12.7088 13.7578C12.8051 13.7972 12.911 13.8068 13.0128 13.7854C13.1147 13.764 13.2078 13.7126 13.2801 13.6378L13.636 13.2792C13.7047 13.2115 13.7901 13.1632 13.8835 13.1392C13.977 13.1153 14.0751 13.1165 14.1678 13.1428L15.6092 13.5519C15.6887 13.5763 15.7616 13.6186 15.8223 13.6754C15.883 13.7323 15.9298 13.8023 15.9593 13.8801C15.9888 13.9578 16.0001 14.0413 15.9923 14.1241C15.9846 14.2069 15.958 14.2869 15.9147 14.3578Z" fill="white"/>
</g>
<defs>
<clipPath id="clip0_1_1183">
<rect width="24" height="24" fill="white"/>
</clipPath>
</defs>
</svg>
